# xmcd CD database file
#
# Track frame offsets:
#	150
#	13707
#	29172
#	42757
#	55645
#	68747
#	83492
#	95987
#	108027
#	123247
#	138567
#	153082
#	163407
#	181432
#	192837
#	210127
#
# Disc length: 2983 seconds
#
# Revision: 0
# Processed by: cddbd v1.5.1PL2 Copyright (c) Steve Scherf et al.
# Submitted via: CDex 1.51
#
DISCID=cf0ba510
DTITLE=ダンス音楽 - ルンバ
DYEAR=1900
DGENRE=Vocal
TTITLE0=ビギン・ザ・ビギン
TTITLE1=マラゲーニャ
TTITLE2=マイアミ・ビーチ・ルンバ
TTITLE3=サン・トワ・マミー
TTITLE4=慕情
TTITLE5=タブー
TTITLE6=エストレリータ
TTITLE7=インディアン・ラブ・コール
TTITLE8=グリーン・アイズ
TTITLE9=ベサメムーチョ
TTITLE10=エリーゼのために
TTITLE11=白鳥
TTITLE12=ある恋の物語
TTITLE13=キサス・キサス・キサス
TTITLE14=マリア・エレナ
TTITLE15=そよ風と私
EXTD=
EXTT0=
EXTT1=
EXTT2=
EXTT3=
EXTT4=
EXTT5=
EXTT6=
EXTT7=
EXTT8=
EXTT9=
EXTT10=
EXTT11=
EXTT12=
EXTT13=
EXTT14=
EXTT15=
PLAYORDER=
